# xmcd CD database file
#
# Track frame offsets:
#	150
#	12829
#	26519
#	39204
#	52285
#	65887
#	79086
#	92400
#	106272
#	119823
#	132434
#	143975
#
# Disc length: 2098 seconds
#
# Revision: 0
# Processed by: cddbd v1.5.2PL0 Copyright (c) Steve Scherf et al.
# Submitted via: CDex 1.51
#
DISCID=a708300c
DTITLE=B.B. KING - Singin' The Blues
DYEAR=1956
DGENRE=Blues
TTITLE0=Please Love Me
TTITLE1=You Upset Me Baby
TTITLE2=Every Day I Have The Blues
TTITLE3=Bad Luck
TTITLE4=Three O'Clock Blues
TTITLE5=Blind Love
TTITLE6=Woke Up This Morning(My Baby's Gone)
TTITLE7=You Know I Love You
TTITLE8=Sweet Little Angel
TTITLE9=Ten Long Years
TTITLE10=Did You Ever Love A Woman
TTITLE11=Crying Won't Help You
EXTD=YEAR: 1956
EXTT0=
EXTT1=
EXTT2=
EXTT3=
EXTT4=
EXTT5=
EXTT6=
EXTT7=
EXTT8=
EXTT9=
EXTT10=
EXTT11=
PLAYORDER=
